<?xml version="1.0" standalone="no"?>
<!DOCTYPE svg PUBLIC "-//W3C//DTD SVG 20010904//EN"
 "http://www.w3.org/TR/2001/REC-SVG-20010904/DTD/svg10.dtd">
<svg version="1.0" xmlns="http://www.w3.org/2000/svg"
 width="345.000000pt" height="240.000000pt" viewBox="0 0 345.000000 240.000000"
 preserveAspectRatio="xMidYMid meet">

<g transform="translate(0.000000,240.000000) scale(0.100000,-0.100000)"
fill="#000000" stroke="none">
<path d="M1765 1930 c-3 -5 -1 -10 4 -10 6 0 11 -5 11 -11 0 -26 204 -259 226
-259 8 0 14 -8 14 -18 0 -10 14 -31 31 -48 17 -16 35 -39 40 -51 8 -21 15 -23
71 -23 l63 1 -220 214 c-121 118 -223 215 -227 215 -4 0 -10 -4 -13 -10z"/>
<path d="M1476 1757 c-81 -83 -143 -153 -136 -155 7 -3 16 2 21 9 7 12 9 12 9
0 0 -11 6 -8 20 7 12 12 24 22 28 22 4 0 25 16 45 37 26 25 35 39 27 47 -13
13 -13 26 0 26 5 0 24 15 42 34 18 18 38 31 44 29 11 -4 84 76 84 91 0 28 -57
-17 -184 -147z"/>
<path d="M1627 1841 c-9 -16 -17 -40 -17 -53 1 -19 6 -14 25 22 13 25 24 48
25 53 1 17 -17 5 -33 -22z"/>
<path d="M1790 1859 c0 -12 31 -95 80 -211 28 -64 50 -119 50 -123 0 -10 -57
33 -122 94 -69 63 -63 37 7 -34 25 -25 43 -50 40 -55 -3 -4 10 -18 29 -29 59
-37 63 -48 31 -81 l-27 -29 -47 26 c-55 31 -103 27 -151 -14 -84 -70 -79 -191
10 -251 67 -46 190 -14 190 48 0 30 0 30 -60 30 l-60 0 0 40 0 40 101 0 101 0
-7 -97 c-7 -108 -9 -111 -84 -145 -52 -24 -142 -26 -191 -6 -108 46 -169 167
-142 283 5 23 5 51 1 63 -5 12 -4 24 2 27 5 4 7 11 4 16 -7 11 19 52 28 43 8
-8 49 35 42 45 -3 5 15 33 39 62 25 30 43 55 41 58 -4 4 -92 -76 -134 -122
-25 -28 -69 -58 -58 -40 13 23 57 125 63 147 6 27 -10 43 -30 27 -7 -6 -37
-53 -67 -106 -30 -53 -59 -93 -65 -91 -8 3 -10 -3 -6 -17 7 -29 103 -268 136
-337 l26 -55 -36 -3 c-51 -5 -58 0 -74 47 l-13 41 -82 0 -83 0 -21 -45 c-19
-41 -24 -45 -56 -45 -19 0 -35 4 -35 9 0 5 10 35 22 66 l21 56 -23 22 c-18 18
-22 19 -17 5 7 -19 -8 -25 -18 -8 -3 6 -23 10 -44 10 -22 0 -44 6 -51 15 -7 8
-27 15 -44 15 l-31 1 30 14 c17 7 26 14 21 14 -5 1 -3 8 4 16 23 27 -6 16 -34
-14 -18 -19 -25 -34 -20 -43 4 -7 172 -181 373 -386 378 -385 412 -413 356
-289 -14 30 -41 97 -59 148 -18 52 -37 102 -41 112 -4 10 -3 17 4 17 6 0 11
-4 11 -10 0 -5 23 -10 50 -10 64 0 65 15 5 79 -55 59 -62 101 -16 101 16 0 34
7 41 15 17 20 25 19 61 -7 21 -16 32 -19 37 -11 5 8 12 9 22 2 11 -8 12 -12 3
-16 -7 -2 -13 -12 -13 -20 0 -8 -18 -37 -40 -63 -22 -26 -40 -51 -40 -54 0
-12 38 -6 49 8 7 8 31 24 53 36 l41 21 -7 -32 c-5 -25 -3 -30 9 -25 8 3 15 1
15 -4 0 -19 26 2 50 40 17 27 27 35 32 27 5 -7 6 1 2 17 -6 25 -4 28 10 23 9
-4 15 -3 11 2 -8 14 6 41 22 41 10 0 12 6 8 20 -4 12 -2 20 5 20 6 0 8 5 5 10
-3 6 -1 10 4 10 6 0 11 8 12 18 0 11 4 7 11 -10 7 -20 17 -28 34 -28 l24 0
-21 -36 c-11 -20 -25 -42 -32 -49 -7 -7 -25 -29 -41 -49 -15 -20 -33 -33 -39
-29 -6 4 -7 1 -3 -6 5 -7 1 -20 -8 -30 -9 -10 -15 -30 -14 -45 5 -56 49 -24
259 181 168 166 198 199 193 218 -4 17 -1 25 15 30 11 3 26 3 32 -1 7 -4 9 -3
5 4 -3 5 0 12 6 15 8 2 -27 43 -82 95 l-95 91 -57 1 c-46 0 -58 -3 -58 -16 0
-8 4 -13 9 -9 12 7 161 -125 161 -142 0 -7 -11 -13 -24 -13 -24 0 -48 -24
-113 -113 -18 -24 -33 -51 -33 -60 0 -13 -10 -17 -45 -17 l-45 0 0 185 0 185
-65 0 -65 0 0 39 c0 40 0 40 42 43 23 2 43 9 46 16 3 9 -3 13 -14 12 -11 -1
-24 -2 -30 -1 -6 0 -44 59 -84 131 -64 113 -128 207 -130 189z m226 -536 c-4
-4 -36 73 -35 85 0 4 9 -13 20 -37 11 -24 18 -46 15 -48z m-507 3 c9 -11 8
-15 -5 -20 -20 -8 -39 7 -30 23 10 15 21 14 35 -3z m906 -64 c-3 -3 -11 0 -18
7 -9 10 -8 11 6 5 10 -3 15 -9 12 -12z m-393 -84 c-5 -22 -42 -78 -42 -64 0 9
39 86 44 86 2 0 2 -10 -2 -22z m-638 -77 c23 -20 77 -126 69 -135 -4 -3 0 -6
7 -6 11 0 11 -3 2 -12 -8 -8 -15 -9 -20 -3 -4 6 -17 10 -29 10 -14 0 -41 22
-77 64 -51 59 -65 88 -50 104 10 10 78 -5 98 -22z m587 -24 c-10 -9 -11 -8 -5
6 3 10 9 15 12 12 3 -3 0 -11 -7 -18z m-41 -137 c0 -5 -4 -10 -10 -10 -5 0
-10 5 -10 10 0 6 5 10 10 10 6 0 10 -4 10 -10z m-380 -180 c0 -5 -2 -10 -4
-10 -3 0 -8 5 -11 10 -3 6 -1 10 4 10 6 0 11 -4 11 -10z"/>
<path d="M1236 1511 c-39 -26 -185 -174 -180 -183 3 -5 12 -4 20 3 8 6 23 9
33 6 12 -3 27 3 37 14 9 10 25 21 36 25 20 6 97 81 128 124 l18 25 -35 0 c-20
0 -45 -6 -57 -14z"/>
<path d="M1332 1310 c-39 -92 -40 -90 17 -90 59 0 60 2 26 80 l-23 55 -20 -45z"/>
<path d="M2181 1260 c0 -32 2 -40 9 -29 5 9 6 28 0 45 -8 27 -8 26 -9 -16z"/>
<path d="M1789 683 c-5 -16 -12 -34 -14 -40 -9 -26 14 -12 34 21 25 40 26 46
6 46 -9 0 -20 -12 -26 -27z"/>
</g>
</svg>
