<?xml version="1.0" standalone="no"?>
<!DOCTYPE svg PUBLIC "-//W3C//DTD SVG 20010904//EN"
 "http://www.w3.org/TR/2001/REC-SVG-20010904/DTD/svg10.dtd">
<svg version="1.0" xmlns="http://www.w3.org/2000/svg"
 width="288.000000pt" height="200.000000pt" viewBox="0 0 288.000000 200.000000"
 preserveAspectRatio="xMidYMid meet">

<g transform="translate(0.000000,200.000000) scale(0.100000,-0.100000)"
fill="#000000" stroke="none">
<path d="M1476 1612 c-3 -5 1 -17 8 -28 8 -10 12 -23 9 -29 -2 -7 21 -71 52
-144 31 -73 54 -136 51 -139 -4 -3 -6 0 -6 6 0 7 -4 11 -9 9 -5 -1 -27 14 -48
33 -21 19 -47 42 -57 50 -19 15 -19 14 -2 -12 10 -15 28 -34 42 -43 13 -8 24
-23 24 -33 0 -9 16 -27 35 -40 19 -12 35 -26 35 -30 0 -5 -11 -19 -25 -32 -23
-22 -26 -22 -43 -7 -55 50 -160 13 -184 -64 -25 -87 42 -177 125 -166 52 7 89
33 85 60 -3 19 -10 22 -50 25 -47 3 -48 4 -48 38 0 33 1 34 43 34 23 0 59 -3
80 -6 l38 -7 -3 -81 -3 -81 -54 -28 c-89 -45 -184 -29 -243 41 -39 46 -49 90
-45 183 4 91 16 124 47 134 11 3 20 13 20 22 0 9 16 36 36 59 52 65 29 53 -55
-26 -40 -39 -75 -70 -77 -70 -2 0 10 28 26 63 62 130 20 133 -53 3 -37 -65
-52 -85 -59 -75 -22 32 47 -151 108 -289 13 -29 24 -55 24 -57 0 -3 -16 -5
-36 -5 -32 0 -37 4 -51 40 l-16 40 -67 0 -67 0 -18 -40 c-15 -33 -23 -40 -47
-40 -33 0 -34 9 -11 68 15 41 15 44 -2 60 -10 9 -15 11 -11 5 8 -15 -10 -18
-19 -4 -3 5 -19 9 -36 9 -16 -1 -35 4 -41 10 -7 7 -21 12 -32 12 -20 1 -20 1
-3 14 9 7 17 18 17 23 0 15 49 45 63 40 20 -7 84 32 119 72 75 86 82 95 62 86
-11 -4 -30 -7 -44 -6 -20 1 -51 -24 -139 -113 l-114 -115 51 -58 c28 -32 171
-177 317 -323 187 -185 266 -257 262 -240 -5 26 -68 199 -93 258 -8 18 -9 32
-4 32 6 0 10 -3 10 -7 0 -13 49 -32 56 -22 3 5 9 7 14 4 5 -3 11 -1 14 4 6 9
-38 69 -61 84 -7 4 -13 19 -13 32 0 19 7 26 28 31 15 4 32 10 37 15 6 4 23 0
39 -10 15 -10 36 -16 47 -14 18 5 18 3 5 -21 -7 -15 -25 -40 -40 -56 -14 -17
-26 -35 -26 -41 0 -12 43 -1 48 12 2 5 10 9 18 9 8 0 14 4 14 8 0 5 7 9 16 9
11 0 14 -7 10 -22 -5 -18 -1 -21 17 -20 14 1 33 18 54 48 19 29 34 42 37 34 3
-6 4 -3 1 8 -2 11 2 31 10 45 9 16 15 20 16 10 1 -10 3 -8 7 5 6 18 11 19 40
10 l32 -11 -68 -85 c-57 -70 -68 -89 -61 -107 15 -39 22 -33 257 198 106 104
149 151 125 136 -7 -4 -13 -3 -13 3 0 6 9 15 20 21 11 6 20 7 20 3 0 -4 5 -2
12 5 10 10 -4 28 -62 87 -74 74 -75 75 -127 75 -48 0 -53 -2 -53 -22 0 -18 2
-20 9 -9 8 12 23 2 74 -45 35 -32 62 -62 60 -66 -2 -5 -14 -8 -26 -8 -15 0
-34 -18 -61 -55 -22 -30 -43 -55 -47 -55 -4 0 -9 -10 -11 -22 -2 -19 -10 -24
-41 -26 l-39 -3 4 153 3 153 -53 3 -52 3 0 35 c0 32 2 34 35 34 19 0 35 5 35
11 0 6 -6 9 -14 6 -20 -8 -35 12 -110 141 l-65 113 84 -87 c47 -48 85 -89 85
-92 0 -2 11 -18 25 -36 14 -18 25 -38 25 -44 0 -8 21 -12 58 -12 l57 0 -151
148 c-205 201 -221 215 -228 204z m204 -487 c0 -5 -5 -3 -10 5 -5 8 -10 20
-10 25 0 6 5 3 10 -5 5 -8 10 -19 10 -25z m-420 -26 c0 -5 -7 -9 -15 -9 -15 0
-20 12 -9 23 8 8 24 -1 24 -14z m415 -148 c-8 -17 -18 -31 -21 -31 -3 0 -4 3
-2 8 21 43 32 61 35 58 3 -2 -3 -18 -12 -35z m-494 -69 c13 -26 23 -53 22 -59
0 -7 3 -10 8 -7 11 6 11 1 3 -21 -6 -14 -8 -14 -25 1 -11 10 -19 12 -19 6 0
-7 5 -12 10 -12 6 0 10 -6 10 -12 -1 -13 -77 66 -107 109 -23 34 -12 49 34 45
36 -3 42 -8 64 -50z m429 -102 c0 -5 -7 -7 -15 -4 -8 4 -15 8 -15 10 0 2 7 4
15 4 8 0 15 -4 15 -10z m-315 -140 c3 -5 1 -10 -4 -10 -6 0 -11 5 -11 10 0 6
2 10 4 10 3 0 8 -4 11 -10z"/>
<path d="M1259 1489 c-76 -76 -108 -114 -101 -121 7 -7 20 -4 40 10 42 30 58
52 45 60 -7 4 4 21 28 43 21 20 41 34 44 31 3 -3 14 3 25 13 20 18 20 18 9
-14 -6 -18 -9 -35 -5 -38 6 -6 27 41 31 72 2 11 6 28 10 38 16 39 -21 12 -126
-94z"/>
<path d="M1123 1352 c-10 -17 -8 -18 13 -14 14 2 23 9 21 15 -6 18 -22 18 -34
-1z"/>
<path d="M1103 1070 l-21 -50 45 0 c32 0 44 4 40 13 -2 6 -10 29 -18 50 -7 20
-16 37 -19 37 -3 0 -16 -22 -27 -50z"/>
<path d="M1821 1055 c0 -31 2 -36 9 -23 6 10 7 25 1 40 -9 20 -10 18 -10 -17z"/>
<path d="M1491 559 c-14 -39 -14 -42 -1 -34 6 3 17 19 25 36 13 25 13 29 1 29
-8 0 -19 -14 -25 -31z"/>
</g>
</svg>
